<?xml version="1.0" encoding="UTF-8"?>
<!-- Generated by Pixelmator Pro 3.6.18 -->
<svg width="462" height="439" viewBox="0 0 462 439" xmlns="http://www.w3.org/2000/svg">
    <g id="DarkBGLogo">
        <g id="g1">
            <path id="path1" fill="#fffffe" stroke="none" d="M 30.959986 210.522934 C 30.959986 102.751251 118.512886 15.389618 226.516632 15.389618 C 334.522461 15.389618 420.677521 102.751251 420.677521 210.522934 C 420.677521 318.295013 334.522461 405.656799 226.516632 405.656799 C 118.512886 405.656799 30.959986 318.295013 30.959986 210.522934 Z"/>
            <g id="g2">
                <path id="path2" fill="#646464" stroke="none" d="M 43.085384 210.518875 C 43.093712 109.595459 124.899132 27.792206 225.820831 27.792206 L 225.820831 27.792206 C 326.736237 27.792206 408.539551 109.595459 408.547882 210.518875 L 408.547882 210.518875 C 408.539551 311.442535 326.736237 393.245911 225.820831 393.254181 L 225.820831 393.254181 C 124.899132 393.245911 43.093712 311.442535 43.085384 210.518875 L 43.085384 210.518875 Z M 55.025829 210.518875 C 55.025829 257.699158 74.136253 300.358826 105.050438 331.289124 L 105.050438 331.289124 C 135.972885 362.20343 178.632507 381.305542 225.820831 381.313812 L 225.820831 381.313812 C 272.99292 381.305542 315.66037 362.20343 346.582886 331.289124 L 346.582886 331.289124 C 377.49707 300.358826 396.607056 257.699158 396.607056 210.518875 L 396.607056 210.518875 C 396.607056 163.338837 377.49707 120.679199 346.582886 89.756744 L 346.582886 89.756744 C 315.66037 58.834686 272.99292 39.732574 225.820831 39.732574 L 225.820831 39.732574 C 178.632507 39.732574 135.972885 58.834686 105.050438 89.756744 L 105.050438 89.756744 C 74.136253 120.679199 55.025829 163.338837 55.025829 210.518875 L 55.025829 210.518875 L 55.025829 210.518875 Z"/>
            </g>
            <path id="path3" fill="#646464" stroke="none" d="M 246.359161 255.394211 C 246.359161 250.773849 249.697464 247.921341 253.575424 247.913452 C 258.903717 247.921341 261.475403 252.020874 261.491669 257.442932 L 264.386658 257.613831 L 264.712494 249.278351 L 264.541199 249.278351 L 264.651276 249.150055 C 261.347107 246.204224 257.640411 245.384186 253.422897 245.384186 C 246.887878 245.400467 240.800827 249.902954 240.792496 257.52002 C 240.886215 273.360901 261.42453 266.579651 261.243347 277.340546 C 261.227051 282.318848 258.136658 285.836243 253.276215 285.84668 L 253.062912 285.84668 C 246.965378 285.726624 243.174957 280.705505 243.01207 274.180847 L 239.809952 274.017944 L 239.822098 274.188843 L 239.809952 274.188843 L 239.885422 275.000488 L 240.723328 285.999268 C 244.430374 288.117188 248.503326 288.672485 252.482895 288.672485 C 260.08374 288.656311 267.640015 284.471375 267.647888 275.299683 C 267.564545 260.073425 246.171661 264.512604 246.359161 255.394211 Z M 239.982895 274.188843 L 239.980789 274.172546 L 240.229126 274.188843 L 239.982895 274.188843 Z M 220.893311 245.784988 C 219.544189 245.784988 218.297104 246.041336 216.990814 246.212616 L 210.04126 250.637527 L 211.04834 251.48172 C 212.925812 250.910034 214.805817 250.57637 216.598343 250.57637 C 226.282471 250.594681 230.577499 259.577148 230.587479 268.689697 C 230.577499 278.143799 226.445419 286.145508 217.922882 286.161774 C 212.319595 286.153748 208.981232 282.292145 208.9729 276.71759 L 208.9729 221.259277 L 207.255844 220.492142 C 203.762466 222.036331 199.518738 223.395508 195.58165 223.907944 L 195.488327 225.495117 C 198.033295 225.657623 199.852081 226.076736 202.063721 227.177521 L 201.911255 271.421783 C 201.911255 273.419678 201.927536 275.393372 201.927536 277.375122 C 201.927536 280.900543 201.876663 284.444641 201.620392 288.159668 L 203.199158 289.01416 L 206.397461 285.915833 C 209.044174 287.512939 212.390808 288.76593 215.444595 288.7742 C 230.552887 288.749664 237.102097 277.903839 237.120407 266.136261 C 237.102097 252.848785 231.132919 245.803421 220.893311 245.784988 Z M 172.866653 230.235519 L 172.994583 228.056305 L 152.755386 227.887573 L 152.584549 230.072495 L 160.486633 232.186356 L 159.308716 235.555496 L 146.055817 272.99469 C 144.609161 268.650909 133.753296 235.956284 133.012482 233.181351 L 134.027893 231.592529 L 140.62999 230.611771 L 140.774185 228.227203 L 118.887108 228.083008 L 118.895432 228.253784 L 118.71627 228.253784 L 118.71627 230.465546 L 124.712082 231.840485 L 125.80455 233.83049 C 125.047462 236.635941 113.701218 268.852203 112.179153 273.179596 L 99.069183 232.320877 L 99.45752 232.215088 L 105.837914 230.636307 L 106.137054 228.261795 L 105.969971 228.26001 L 105.969971 228.253784 L 105.166214 228.25174 L 83.36248 228.03215 L 83.149178 230.259674 L 90.937073 232.190414 L 108.903725 288.928833 L 111.654564 289.048859 L 128.015808 243.907135 L 143.191238 288.76593 L 146.110825 288.902527 L 165.949158 232.078781 L 172.866653 230.235519 Z M 105.957886 228.424683 L 105.965836 228.424683 L 105.949562 228.528442 L 105.957886 228.424683 Z M 98.906227 232.365509 L 98.914558 232.363358 L 99.443336 234.035843 L 98.906227 232.365509 Z M 152.926224 228.058334 L 152.926224 228.056305 L 153.162476 228.058334 L 152.926224 228.058334 Z M 160.539597 232.031723 L 160.055374 231.899612 L 160.543732 232.021683 L 160.539597 232.031723 Z M 294.088318 279.228455 L 293.856659 279.450073 C 291.978729 281.335938 289.075378 284.249573 286.744141 284.231262 C 282.294556 284.1297 280.561218 281.071716 280.534576 275.486725 C 280.534576 275.23877 280.534576 274.992615 280.552887 274.752502 L 280.552887 252.484604 L 280.841675 252.484604 L 292.686676 252.651688 L 292.857452 248.509186 L 280.38205 248.338409 L 280.552887 237.732544 L 278.416656 237.561768 C 276.709961 243.514603 271.995819 247.040527 267.402039 250.37088 L 267.324554 252.480545 L 267.501678 252.480545 L 267.501678 252.484604 L 267.503693 252.484604 L 267.503693 252.651688 L 273.405792 252.651688 L 273.234955 278.160065 C 273.24292 286.135437 278.374115 289.01416 282.986237 289.022522 C 283.17334 289.022522 283.344177 289.01416 283.525421 289.01416 C 290.047943 288.688751 294.539978 282.198792 294.548309 282.19043 L 294.147461 279.543762 L 294.088318 279.228455 Z M 272.237885 206.515091 L 272.427094 206.515091 C 277.383331 206.390854 281.391235 204.527512 285.179535 201.555099 L 284.96579 206.576248 C 284.97583 206.582108 284.998352 206.586304 285.037079 206.586304 C 285.055389 206.586304 285.118317 206.574219 285.140839 206.572189 L 285.140839 206.588455 C 285.140839 206.588455 285.254578 206.561752 285.29538 206.553879 C 286.827484 206.380814 294.78833 204.578369 298.383301 203.908768 L 298.631683 203.866287 L 297.396637 201.949661 L 291.586212 201.345535 L 291.594147 176.459229 C 291.586212 169.261261 288.475372 165.998047 283.442078 165.989655 C 283.203735 165.989655 282.963715 165.981781 282.717468 165.981781 C 282.001648 165.981781 281.242462 166.024231 280.571198 166.417145 L 271.45459 171.867584 C 270.527039 172.465485 267.263763 174.245941 267.119171 175.830811 L 266.812103 180.353394 L 267.434601 180.83963 L 272.195404 179.885468 C 272.783295 179.749268 273.643707 179.781708 273.643707 178.795074 L 273.643707 178.658783 C 273.601257 177.875488 273.558319 177.116364 273.558319 176.400482 C 273.584961 173.230469 274.325409 170.862549 280.058777 170.044678 C 280.272064 170.012115 280.477478 169.993805 280.681244 169.993805 C 283.559967 170.012115 285.264984 173.043427 285.272888 178.904694 L 285.272888 184.914627 C 281.36084 186.129227 277.074158 187.813797 272.494141 189.341705 C 269.027496 190.465012 263.652527 192.118805 263.652527 198.993393 C 263.668732 202.238434 267.373383 206.507202 272.237885 206.515091 Z M 285.148712 206.411331 C 285.144958 206.411331 285.102051 206.421371 285.102051 206.421371 L 285.199585 205.205124 L 285.148712 206.411331 Z M 285.450012 187.036743 L 285.450012 187.087601 C 284.717468 187.321701 284.029999 187.537094 283.338318 187.757202 C 284.032074 187.52095 284.713318 187.290924 285.450012 187.036743 Z M 285.450012 187.2117 L 285.450012 189.891281 L 285.274994 198.814621 C 282.817474 200.342529 279.002533 202.324265 276.720001 202.315872 C 273.69458 202.307602 270.55127 200.177612 270.543304 197.384232 C 270.518707 191.874664 276.410828 190.31636 285.450012 187.2117 Z M 252.525803 156.244629 C 254.434174 156.244629 256.248749 154.71048 256.25708 152.622955 C 256.248749 150.48468 254.663757 148.568329 252.525803 148.560059 C 250.446228 148.576324 248.938721 150.639709 248.938721 152.622955 C 248.947052 154.565918 250.676254 156.244629 252.525803 156.244629 Z M 249.815842 202.92012 L 242.387482 204.130524 L 242.243347 206.148758 L 263.532471 206.319656 L 263.532471 206.148758 L 263.703308 206.148758 L 263.703308 204.301682 L 256.291687 202.751251 L 256.427917 167.029297 L 254.842911 166.297119 C 251.563293 167.753815 246.928757 169.057953 243.240005 169.542145 L 243.093704 171.552124 C 245.488327 171.723022 247.856232 172.132202 249.90918 173.171722 L 249.815842 202.92012 Z M 242.41832 205.970093 L 242.412094 205.970093 L 242.41832 205.91301 L 242.41832 205.970093 Z M 243.266647 171.383392 L 243.264542 171.383392 L 243.266647 171.363037 L 243.266647 171.383392 Z M 190.973755 202.622955 L 183.861252 203.831711 L 183.716675 206.148758 L 204.74913 206.319656 L 204.92041 204.002609 L 197.6875 202.452179 L 197.823746 182.483398 C 197.832077 181.120514 201.581665 171.893799 205.93335 171.885895 C 206.879578 171.877502 208.258728 172.591766 209.103302 173.230469 L 211.257904 173.435944 L 212.818298 167.967194 C 211.404129 166.756805 208.132904 166.553345 206.454178 166.54303 C 202.100403 166.569611 200.847076 171.552124 199.117874 174.833771 L 198.027512 176.587524 L 198.027512 167.029297 L 196.094543 166.297119 L 196.043747 166.457581 L 195.966248 166.297119 C 192.753754 167.753815 188.025818 169.057953 184.262054 169.542145 L 184.115372 171.552124 C 186.552902 171.723022 188.97168 172.132202 191.075424 173.171722 L 190.973755 202.622955 Z M 204.578308 206.146713 L 204.578308 206.148758 L 204.342484 206.146713 L 204.578308 206.146713 Z M 98.277504 203.977936 L 90.805023 202.425858 L 94.963295 157.445129 L 95.354172 156.337952 L 115.399963 204.692169 L 116.508766 204.795929 L 135.99913 156.848877 L 136.53624 157.837524 L 140.379547 202.604645 L 132.396225 203.807159 L 132.251648 206.148758 L 155.219177 206.319656 L 155.390381 203.977936 L 148.411652 202.425858 L 143.419174 152.742981 L 151.23999 151.550903 L 151.215393 151.380127 L 151.38623 151.361694 L 151.292892 149.370026 L 134.235413 149.207153 L 117.198341 190.643784 L 99.921638 149.308868 L 82.567055 149.207153 L 82.302505 151.361694 L 90.805023 152.930542 L 86.025841 202.58049 L 79.450386 203.807159 L 79.314133 206.148758 L 98.106667 206.319656 L 98.277504 203.977936 Z M 132.424576 205.970093 L 132.42247 205.970093 L 132.424576 205.945435 L 132.424576 205.970093 Z M 155.04834 206.146713 L 155.04834 206.148758 L 154.792053 206.146713 L 155.04834 206.146713 Z M 97.935837 206.148758 L 97.726219 206.146713 L 97.935837 206.146713 L 97.935837 206.148758 Z M 360.675842 179.228424 C 360.702484 171.110504 356.596649 166.51889 347.974548 166.288849 C 347.940033 166.280853 347.897064 166.280853 347.854584 166.280853 C 346.806671 166.280853 345.138336 166.698059 342.794586 168.520966 L 336.766205 173.678436 C 334.599579 169.578766 330.485809 166.374176 325.637451 166.364136 C 322.45163 166.355865 321.292084 166.799652 318.79541 168.758881 L 313.027924 172.490021 L 313.027924 167.029297 L 311.172058 166.297119 C 307.959961 167.753815 303.434967 169.057953 299.82373 169.542145 L 299.636688 171.102631 C 301.978333 171.279633 304.295837 171.688446 306.307892 172.727936 L 306.254974 202.521362 L 299.959961 203.737991 L 299.82373 205.851715 L 319.281677 206.022491 L 319.452881 204.104202 L 312.891235 202.350464 L 313.027924 175.649628 C 315.88208 173.462524 319.147461 170.846283 322.587921 170.854279 C 329.887482 170.862549 330.06665 178.241699 330.074982 184.757965 L 330.074982 202.521362 L 323.779968 203.935471 L 323.652039 205.851715 L 343.109985 206.022491 L 343.280823 204.104202 L 336.719543 202.350464 L 336.855804 175.566315 C 339.643311 173.513397 343.390808 171.365082 346.875793 171.365082 C 353.443298 171.383392 353.894958 176.921295 353.91333 182.780426 C 353.91333 183.769196 353.902924 184.757965 353.902924 185.736694 L 353.902924 202.521362 L 347.608337 203.935471 L 347.472107 205.851715 L 366.63916 206.022491 L 366.809998 204.104202 L 360.547485 202.350464 L 360.675842 179.228424 Z M 299.813751 170.939606 C 299.811646 170.939606 299.80954 170.939606 299.807526 170.939606 L 299.815857 170.892944 L 299.813751 170.939606 Z M 299.998749 205.672928 L 299.994568 205.672928 L 299.998749 205.630081 L 299.998749 205.672928 Z M 319.11084 205.849686 L 319.11084 205.851715 L 318.893341 205.849686 L 319.11084 205.849686 Z M 342.939148 205.849686 L 342.939148 205.851715 L 342.721191 205.849686 L 342.939148 205.849686 Z M 366.462036 205.849686 L 366.462036 205.851715 L 366.248352 205.849686 L 366.462036 205.849686 Z M 168.858749 207.206696 C 172.91333 207.206696 175.725006 206.661697 176.363724 206.295486 L 185.879166 196.403854 L 183.20372 196.181717 C 180.129974 199.410477 177.112488 202.112549 172.742493 202.112549 C 172.530838 202.112549 172.317474 202.112549 172.103714 202.094238 C 159.717468 201.345535 158.012482 192.007156 157.988327 181.344208 L 158.246643 181.344208 L 179.763763 181.512939 C 182.123718 181.512939 183.094177 181.205841 183.094177 178.087219 C 183.077911 171.143311 177.130798 166.297119 168.858749 166.288849 C 159.060379 166.305145 151.199173 173.623383 151.17247 186.631744 C 151.199173 199.870529 158.98497 207.188385 168.858749 207.206696 Z M 167.68248 168.775024 C 173.621201 168.785065 176.184998 173.010864 176.201218 178.538879 C 176.201218 178.845947 176.192886 179.169189 176.184998 179.49292 L 158.16539 179.332184 C 158.620804 174.075043 162.106232 168.766754 167.68248 168.775024 Z M 242.591248 167.967194 C 241.177078 166.750946 237.905853 166.553345 236.227066 166.545074 C 231.873352 166.571777 230.62207 171.554291 228.892929 174.833771 L 227.794174 176.589691 L 227.80249 167.031311 L 225.867493 166.290894 L 225.816635 166.459625 L 225.741226 166.299286 C 222.528748 167.755859 217.800812 169.057953 214.035004 169.544189 L 213.890427 171.554291 C 216.327881 171.725067 218.746658 172.13385 220.842072 173.173889 L 220.748734 202.622955 L 213.63623 203.833862 L 213.489563 206.140869 L 213.666626 206.143036 L 213.666626 206.146713 L 214.205841 206.146713 L 234.524185 206.319656 L 234.693298 204.002609 L 227.460388 202.452179 L 227.607056 182.485413 C 227.607056 181.122559 231.346222 171.895966 235.708328 171.887939 C 236.652527 171.877502 238.033707 172.593781 238.876251 173.224609 L 241.032883 173.437988 L 242.591248 167.967194 Z M 344.251221 254.289215 L 343.089569 256.15918 L 343.089569 246.075912 L 341.057037 245.315018 L 341.006256 245.478027 L 340.937073 245.315018 C 337.555786 246.851318 332.59375 248.218384 328.632507 248.722931 L 328.477875 250.830811 C 331.041229 251.001709 333.584564 251.428833 335.787933 252.521362 L 335.694153 283.486786 L 328.205017 284.766357 L 328.068756 287.191345 L 350.159546 287.362122 L 350.330383 284.937134 L 342.739594 283.315491 L 342.875824 262.317627 C 342.884155 260.883423 346.812927 251.180496 351.406708 251.172485 C 352.405396 251.164215 353.858337 251.91507 354.745392 252.58252 L 356.999542 252.804276 L 358.631226 247.056671 C 357.154175 245.793381 353.71167 245.588013 351.953735 245.57962 C 347.384552 245.60582 346.070007 250.830811 344.251221 254.289215 Z M 328.241638 287.012207 L 328.239594 287.012207 L 328.241638 286.988037 L 328.241638 287.012207 Z M 349.988708 287.189209 L 349.988708 287.191345 L 349.740387 287.189209 L 349.988708 287.189209 Z M 183.989166 283.508789 C 183.75914 283.508789 183.529572 283.500916 183.30748 283.490479 C 170.223709 282.705536 168.412872 272.825867 168.388718 261.570831 L 191.394958 261.74173 C 193.887039 261.731689 194.896225 261.424225 194.896225 258.136719 C 194.88623 250.810471 188.609604 245.695465 179.881699 245.677155 C 169.539993 245.703857 161.239594 253.422516 161.214981 267.147522 C 161.239594 281.126373 169.454544 288.853424 179.881699 288.871735 C 184.160004 288.863831 187.132477 288.2901 187.797897 287.907501 L 197.832077 277.47876 L 195.024582 277.24884 C 191.787491 280.656799 188.601654 283.508789 183.989166 283.508789 Z M 178.636642 248.281326 C 184.912903 248.299637 187.62915 252.773758 187.645432 258.614685 C 187.645432 258.940094 187.637039 259.273743 187.62915 259.61377 L 168.57373 259.453064 C 169.055847 253.900879 172.738297 248.281326 178.636642 248.281326 Z M 328.624176 276.970001 C 325.387482 280.37793 322.201263 283.230042 317.591248 283.230042 C 317.359131 283.230042 317.12915 283.222168 316.899597 283.211731 C 303.81543 282.418396 302.012909 272.547119 301.988312 261.292114 L 324.994568 261.463013 C 327.47876 261.452942 328.496277 261.145508 328.496277 257.857971 C 328.48584 250.523346 322.201263 245.416733 313.483337 245.398422 C 303.142059 245.425003 294.831238 253.143784 294.815033 266.868835 C 294.831238 280.848022 303.056671 288.574707 313.483337 288.593018 C 317.751648 288.584991 320.724121 288.011261 321.399597 287.62674 L 331.432068 277.200012 L 328.624176 276.970001 Z M 312.228302 248.004623 C 318.512878 248.020905 321.22876 252.495041 321.244965 258.327942 C 321.244965 258.653351 321.22876 258.984985 321.218719 259.337219 L 302.165375 259.165924 C 302.651611 253.615921 306.340363 247.994705 312.228302 248.004623 Z M 366.570007 183.995026 L 366.570007 189.620438 L 381.881683 189.620438 L 381.881683 183.995026 L 366.570007 183.995026 Z"/>
            <g id="g3">
                <path id="path4" fill="#2c2c2c" stroke="none" d="M 346.918335 396.733459 C 346.918335 393.115845 349.852081 390.4505 353.319183 390.4505 C 356.753326 390.4505 359.684967 393.115845 359.684967 396.733459 C 359.684967 400.382965 356.753326 403.052612 353.319183 403.052612 C 349.852081 403.052612 346.918335 400.382965 346.918335 396.733459 Z M 353.319183 401.998352 C 356.169525 401.998352 358.419586 399.768799 358.419586 396.733459 C 358.419586 393.750488 356.169525 391.500427 353.319183 391.500427 C 350.436249 391.500427 348.185822 393.750488 348.185822 396.733459 C 348.185822 399.768799 350.436249 401.998352 353.319183 401.998352 Z M 351.986664 400.382965 L 350.885864 400.382965 L 350.885864 393.115845 L 353.652924 393.115845 C 355.369965 393.115845 356.218292 393.750488 356.218292 395.183014 C 356.218292 396.484985 355.402527 397.050446 354.336273 397.184967 L 356.401215 400.382965 L 355.168304 400.382965 L 353.252045 397.233795 L 351.986664 397.233795 L 351.986664 400.382965 Z M 353.302917 396.301758 C 354.236633 396.301758 355.068756 396.232574 355.068756 395.11792 C 355.068756 394.216766 354.252899 394.049683 353.48584 394.049683 L 351.986664 394.049683 L 351.986664 396.301758 L 353.302917 396.301758 Z"/>
            </g>
        </g>
    </g>
</svg>
